<?xml version="1.0" encoding="utf-8"?>
<!-- Generator: Adobe Illustrator 18.1.1, SVG Export Plug-In . SVG Version: 6.00 Build 0)  -->
<svg version="1.1" id="Layer_1" xmlns="http://www.w3.org/2000/svg" xmlns:xlink="http://www.w3.org/1999/xlink" x="0px" y="0px"
	 width="9.466px" height="50.65px" viewBox="-394 283 9.466 50.65" enable-background="new -394 283 9.466 50.65"
	 xml:space="preserve">
<path fill="#FFFFFF" d="M-389.301,292.858c1.396,0,2.528-1.132,2.528-2.528v-4.802c0-1.396-1.132-2.528-2.528-2.528
	c-1.397,0-2.528,1.132-2.528,2.528v4.802C-391.829,291.727-390.698,292.858-389.301,292.858z M-385.861,288.65v1.686
	c0,0.952-0.384,1.808-1.007,2.432c-0.625,0.623-1.481,1.007-2.432,1.008c-0.952,0-1.808-0.384-2.433-1.008
	c-0.624-0.624-1.008-1.479-1.008-2.431v-1.687H-394v1.686c0,2.382,1.772,4.348,4.069,4.655v1.749h-2.062V298h5.383v-1.259h-2.062
	v-1.749c2.297-0.308,4.069-2.274,4.069-4.655v-1.687H-385.861z"/>
<path fill="#FFFFFF" d="M-394.068,328.92l0.89,0.89l8.644-8.644l-0.89-0.89L-394.068,328.92z"/>
<g>
	<path fill="#FFFFFF" d="M-386.773,325.98v-1.599l-3.79,3.79c0.371,0.214,0.802,0.338,1.262,0.338
		C-387.905,328.508-386.773,327.377-386.773,325.98z"/>
	<path fill="#FFFFFF" d="M-392.463,327.345l-0.938,0.938c0.202,0.36,0.45,0.69,0.736,0.983l0.89-0.89
		C-392.063,328.078-392.297,327.73-392.463,327.345z"/>
	<path fill="#FFFFFF" d="M-386.773,321.655l-4.972,4.972c0.111,0.42,0.327,0.796,0.618,1.1l4.354-4.354V321.655z"/>
	<path fill="#FFFFFF" d="M-385.861,325.987c0,0.952-0.384,1.808-1.007,2.432c-0.625,0.623-1.481,1.007-2.432,1.008
		c-0.716,0-1.378-0.217-1.927-0.59l-0.903,0.9c0.629,0.475,1.38,0.795,2.199,0.905v1.749h-2.062v1.259h5.383v-1.259h-2.062v-1.749
		c2.297-0.308,4.069-2.274,4.069-4.655V324.3h-1.258V325.987z"/>
	<path fill="#FFFFFF" d="M-386.82,320.694c-0.226-1.164-1.25-2.044-2.481-2.044c-1.396,0-2.528,1.132-2.528,2.528v4.526
		L-386.82,320.694z"/>
	<path fill="#FFFFFF" d="M-392.692,326.567c-0.032-0.189-0.049-0.382-0.049-0.58V324.3H-394v1.686c0,0.564,0.1,1.105,0.282,1.606
		L-392.692,326.567z"/>
</g>
</svg>
