<svg width="26" height="30" viewBox="0 0 26 30" fill="none" xmlns="http://www.w3.org/2000/svg">
<path d="M12.615 13.3213L17.8641 19.6246L18.0338 19.4366C18.5999 18.8245 19.1361 18.2255 19.6389 17.636C20.1432 17.0496 21.4347 15.653 21.9004 15.0533L23.9646 18.781C23.6113 19.2813 23.1485 19.8627 22.5748 20.5257C22.0033 21.1895 21.3201 21.9514 20.5262 22.8139L25.9284 29.4372H20.4523L17.5435 25.8915C14.8735 28.6313 12.0985 30 9.21663 30C6.63397 30 4.44345 29.1821 2.6438 27.5414C0.880897 25.8916 -4.6282e-10 23.8529 -4.6282e-10 21.4265C-4.6282e-10 18.5368 1.39657 16.1357 4.19206 14.2216L6.09958 12.9274C6.1251 12.9155 6.16891 12.8834 6.23117 12.8326L6.49532 12.6278C4.57004 10.5882 3.60637 8.58143 3.60637 6.60416C3.60637 4.65282 4.24933 3.06449 5.53275 1.8393C6.84238 0.613563 8.53027 0 10.5938 0C12.5968 0 14.2512 0.593458 15.5604 1.7819C16.8696 2.97228 17.5245 4.47146 17.5245 6.28456C17.5245 7.53525 17.1662 8.66837 16.4479 9.68099C15.7427 10.6953 14.4647 11.9074 12.6147 13.3212H12.6149L12.615 13.3213ZM9.12109 15.7792L8.87525 15.9482C7.07491 17.187 5.84709 18.1806 5.19317 18.9296C4.55091 19.6812 4.23047 20.4762 4.23047 21.3135C4.23047 22.5147 4.71494 23.6153 5.68389 24.6145C6.69027 25.5782 7.79829 26.0592 9.0085 26.0592C10.7071 26.0592 12.6659 24.9531 14.8804 22.7398L9.12095 15.7792H9.12109ZM10.066 10.2446L10.4243 9.98119C11.0414 9.52098 11.5514 9.11582 11.9542 8.77264C12.3563 8.42835 12.6473 8.13745 12.8234 7.89923C13.2004 7.43792 13.3896 6.86734 13.3896 6.19318C13.3896 5.42973 13.1314 4.81131 12.6154 4.3346C12.0991 3.85997 11.4059 3.62134 10.5373 3.62134C9.7445 3.62134 9.07783 3.86594 8.53567 4.35318C7.99505 4.81699 7.723 5.41031 7.723 6.13619C7.723 6.98714 8.06354 7.82436 8.74366 8.65062L9.83823 9.96358C9.8765 10.0257 9.95207 10.1207 10.066 10.2446V10.2446Z" fill="#EE0788"/>
</svg>
