<svg width="35" height="30" viewBox="0 0 35 30" fill="none" xmlns="http://www.w3.org/2000/svg">
<path d="M2.4548 2.07013C2.42626 2.07013 2.39772 2.07013 2.39772 2.07013C2.02664 2.01304 1.62702 1.95595 1.2274 1.89886L-3.4844e-06 1.67051L0.970508 0.871266C1.25595 0.642912 1.54139 0.414558 1.79829 0.15766C2.02664 -0.0706938 2.39771 -0.04215 2.59752 0.186204C2.79733 0.414558 2.79734 0.728546 2.62607 0.9569C2.88297 1.04253 3.05423 1.29943 3.02569 1.55633C2.9686 1.84177 2.74025 2.07013 2.4548 2.07013Z" transform="translate(0.141541 27.8157)" fill="#43BB6E"/>
<path d="M16.6536 30C16.3681 30 16.1112 29.7716 16.0827 29.4862C16.0541 29.1722 16.2825 28.8868 16.5965 28.8582C17.3386 28.8011 18.0522 28.687 18.7658 28.5157C19.0798 28.4301 19.3938 28.6299 19.4509 28.9439C19.5365 29.2579 19.3367 29.5718 19.0227 29.6289C18.252 29.8002 17.4813 29.9429 16.6821 30C16.6821 29.9715 16.6821 30 16.6536 30ZM13.7991 29.9715C13.7706 29.9715 13.7706 29.9715 13.742 29.9715C12.9428 29.9144 12.1436 29.7716 11.4014 29.6004C11.0874 29.5433 10.9162 29.2293 10.9733 28.9153C11.0303 28.6013 11.3443 28.4301 11.6583 28.4872C12.3434 28.6584 13.0855 28.7726 13.8277 28.8297C14.1417 28.8582 14.37 29.1437 14.3415 29.4577C14.3415 29.7431 14.0846 29.9715 13.7991 29.9715ZM1.78201 29.9715C1.46802 29.9715 1.23967 29.7431 1.21112 29.4291C1.18258 29.1151 1.43947 28.8582 1.75346 28.8297C2.49561 28.7726 3.20922 28.687 3.92282 28.5157C4.23681 28.4301 4.5508 28.6299 4.60788 28.9439C4.66497 29.2579 4.49371 29.5718 4.17972 29.6289C3.40903 29.8002 2.63834 29.9144 1.81055 29.9715C1.78201 29.9715 1.78201 29.9715 1.78201 29.9715ZM6.7487 28.7441C6.52035 28.7441 6.32054 28.6013 6.20636 28.373C6.09219 28.0875 6.23491 27.745 6.52035 27.6308H6.5489C7.06269 27.431 7.49085 27.2598 7.91902 27.1456L8.14738 27.0885L8.34718 27.2027C8.57554 27.3454 8.83244 27.4596 9.08933 27.6023C9.37478 27.745 9.48895 28.0875 9.34623 28.373C9.20351 28.6584 8.86098 28.7726 8.57554 28.6299C8.37573 28.5442 8.17592 28.4301 7.97611 28.3159C7.69067 28.4015 7.34814 28.5442 6.97706 28.687H6.94852C6.89143 28.7441 6.80579 28.7441 6.7487 28.7441ZM21.5917 28.687C21.3634 28.687 21.1635 28.5728 21.0779 28.3444C20.9352 28.059 21.0779 27.7165 21.3634 27.5737C22.0199 27.2598 22.6764 26.9172 23.2758 26.5176C23.5327 26.3463 23.9038 26.4034 24.0751 26.6889C24.2463 26.9458 24.1892 27.3168 23.9038 27.4881C23.2473 27.9163 22.5622 28.3159 21.8201 28.6584C21.763 28.687 21.6773 28.687 21.5917 28.687ZM0.583153 26.7745C0.468976 26.7745 0.354796 26.746 0.240619 26.6603C-0.0162793 26.4891 -0.0733678 26.118 0.0978976 25.8611C0.554605 25.2331 0.925679 24.6051 1.21112 23.9772C1.35384 23.6917 1.66783 23.549 1.95327 23.6917C2.23872 23.8344 2.38144 24.1484 2.23872 24.4339C1.92473 25.1189 1.52511 25.804 1.03985 26.4891C0.925677 26.7174 0.754419 26.7745 0.583153 26.7745ZM25.7877 25.7755C25.645 25.7755 25.5023 25.7184 25.3881 25.6042C25.1597 25.3758 25.1597 25.0333 25.3881 24.8049C25.9019 24.2912 26.3871 23.7203 26.8153 23.1208C26.9866 22.8639 27.3577 22.8069 27.6146 22.9781C27.8715 23.1494 27.9285 23.5205 27.7573 23.7774C27.3006 24.4339 26.7868 25.0333 26.2159 25.6042C26.1017 25.7184 25.959 25.7755 25.7877 25.7755ZM2.09599 22.1218C1.89618 22.1218 1.69638 22.0076 1.5822 21.8078C1.23967 21.0942 0.925682 20.352 0.697328 19.6099C0.611696 19.2959 0.782958 18.9819 1.0684 18.8963C1.38239 18.8107 1.69637 18.9819 1.78201 19.2674C2.01036 19.9524 2.26726 20.6375 2.60979 21.294C2.75251 21.5794 2.63833 21.922 2.35289 22.0647C2.26726 22.0932 2.18163 22.1218 2.09599 22.1218ZM28.6992 21.5509C28.6136 21.5509 28.528 21.5224 28.4709 21.4938C28.1854 21.3511 28.0427 21.0371 28.1854 20.7517C28.4709 20.0951 28.7278 19.3815 28.9276 18.6965C29.0132 18.3825 29.3272 18.2112 29.6127 18.2969C29.9266 18.3825 30.0979 18.6965 30.0123 18.9819C29.8125 19.7526 29.527 20.4948 29.213 21.2084C29.1274 21.4082 28.9276 21.5509 28.6992 21.5509ZM0.668782 17.1836C0.38334 17.1836 0.126442 16.9553 0.0978976 16.6698C0.0408091 16.156 0.0122684 15.6137 0.0122684 15.0999C0.0122684 14.9572 0.0122684 14.8145 0.0122684 14.6432V14.3007C0.0122684 13.9867 0.297704 13.7298 0.61169 13.7583C0.925677 13.7583 1.18258 14.0438 1.15404 14.3578V14.7003C1.15404 14.8145 1.15404 14.9572 1.15404 15.0999C1.15404 15.5852 1.18258 16.0704 1.23967 16.5557C1.26821 16.8696 1.03986 17.1551 0.725874 17.1836C0.725874 17.1836 0.697327 17.1836 0.668782 17.1836ZM29.9266 16.5842H29.8981C29.5841 16.5557 29.3557 16.2988 29.3557 15.9848C29.3557 15.8135 29.3843 15.6422 29.3843 15.471V15.3568C29.3843 15.2141 29.3843 15.0714 29.3843 14.9286C29.3843 14.5576 29.3558 14.1579 29.3272 13.7583C29.2987 13.4443 29.527 13.1589 29.841 13.1304C30.155 13.1018 30.4404 13.3302 30.469 13.6441C30.4975 14.0723 30.5261 14.4719 30.5261 14.9001C30.5261 15.0428 30.5261 15.2141 30.5261 15.3568V15.471C30.5261 15.6708 30.4975 15.8421 30.4975 16.0133C30.469 16.3559 30.2121 16.5842 29.9266 16.5842ZM1.01132 12.1028C0.954228 12.1028 0.925684 12.1028 0.868596 12.0742C0.554609 11.9886 0.383344 11.7031 0.440432 11.3892C0.640242 10.6185 0.868589 9.84776 1.18258 9.13416C1.29675 8.84871 1.63928 8.70599 1.92473 8.82017C2.21017 8.93435 2.35289 9.27688 2.23872 9.56232C1.95327 10.2474 1.72492 10.9324 1.55366 11.6461C1.49657 11.903 1.26822 12.1028 1.01132 12.1028ZM29.4128 11.4748C29.1559 11.4748 28.9276 11.3035 28.8705 11.0466C28.6707 10.333 28.4138 9.64795 28.0998 8.99144C27.9571 8.70599 28.0998 8.36346 28.3852 8.22074C28.6707 8.07802 29.0132 8.22074 29.1559 8.50618C29.4985 9.21979 29.7839 9.96194 29.9837 10.7326C30.0694 11.0466 29.8981 11.3606 29.5841 11.4462C29.4985 11.4748 29.4414 11.4748 29.4128 11.4748ZM3.09504 7.4215C2.98087 7.4215 2.86669 7.39296 2.78105 7.33587C2.52416 7.16461 2.43852 6.79353 2.63833 6.53663C3.09504 5.88011 3.5803 5.25214 4.12264 4.68126C4.35099 4.4529 4.69352 4.4529 4.92187 4.65271C5.15023 4.88107 5.15023 5.2236 4.95042 5.45195C4.43662 5.99429 3.97992 6.56518 3.5803 7.16461C3.43758 7.33587 3.26631 7.4215 3.09504 7.4215ZM27.1293 6.90771C26.958 6.90771 26.7868 6.82207 26.6726 6.67935C26.2444 6.10847 25.7592 5.53758 25.2168 5.02379C24.9885 4.79543 24.9885 4.4529 25.2168 4.22455C25.4452 3.99619 25.7877 3.99619 26.0161 4.22455C26.587 4.76689 27.1007 5.36632 27.586 6.02284C27.7858 6.27973 27.7287 6.62226 27.4718 6.82207C27.3862 6.85062 27.272 6.90771 27.1293 6.90771ZM6.66307 3.76784C6.49181 3.76784 6.32054 3.68221 6.20636 3.53949C6.0351 3.28259 6.09219 2.94006 6.34908 2.74025C7.0056 2.28354 7.69067 1.88392 8.40427 1.54139C8.68972 1.39867 9.03224 1.51284 9.17496 1.79829C9.31768 2.08373 9.20351 2.42626 8.91807 2.56898C8.26155 2.88297 7.63357 3.25404 7.03414 3.68221C6.89142 3.71075 6.77725 3.76784 6.66307 3.76784ZM23.39 3.42531C23.2758 3.42531 23.1902 3.39676 23.076 3.33968C22.4766 2.94006 21.8201 2.59753 21.135 2.31208C20.8496 2.19791 20.7068 1.85538 20.8496 1.56993C20.9637 1.28449 21.3063 1.14177 21.5917 1.28449C22.3053 1.59848 23.0189 1.96955 23.6754 2.39772C23.9323 2.56898 24.018 2.91151 23.8467 3.19695C23.7611 3.31113 23.5898 3.42531 23.39 3.42531ZM11.3158 1.59848C11.0589 1.59848 10.8305 1.42721 10.7734 1.17031C10.6878 0.856328 10.8876 0.542341 11.1731 0.485252C11.9438 0.285443 12.7145 0.142721 13.5137 0.0570885C13.8277 0.0285443 14.1131 0.256898 14.1417 0.570885C14.1702 0.884872 13.9419 1.17031 13.6279 1.19886C12.8857 1.28449 12.1721 1.39867 11.4585 1.59848C11.4014 1.59848 11.3443 1.59848 11.3158 1.59848ZM18.6802 1.45576C18.6516 1.45576 18.5946 1.45576 18.566 1.45576C17.8524 1.31304 17.1388 1.19886 16.3967 1.14177C16.0827 1.11323 15.8543 0.856327 15.8543 0.542341C15.8829 0.228354 16.1398 1.08888e-07 16.4537 1.08888e-07C17.253 0.0570886 18.0237 0.171265 18.7944 0.342531C19.1084 0.399619 19.3082 0.713606 19.2225 1.02759C19.1655 1.28449 18.9371 1.45576 18.6802 1.45576Z" transform="translate(3.66876)" fill="#43BB6E"/>
</svg>
