<svg fill="none" height="100" viewBox="0 0 113 100" width="113" xmlns="http://www.w3.org/2000/svg"><g fill="#61dafb"><path d="m112.291 50.0114c0-7.4387-9.315-14.4884-23.5979-18.8601 3.2959-14.5571 1.831-26.13871-4.6235-29.84665-1.4878-.869769-3.2273-1.2817618-5.1271-1.2817618v5.1041418c1.0529 0 1.8998.206 2.6093.5951 3.1129 1.78531 4.4633 8.58317 3.4104 17.32667-.2517 2.1515-.6637 4.4174-1.1673 6.7292-4.4861-1.0987-9.3843-1.9455-14.5342-2.4949-3.09-4.2343-6.2943-8.0796-9.5216-11.4442 7.4616-6.93526 14.4655-10.73476 19.2263-10.73476v-5.10414c-6.2943 0-14.5342 4.48615-22.8656 12.2683-8.3314-7.73637-16.5713-12.1767455-22.8657-12.1767455v5.1041455c4.738 0 11.7648 3.77661 19.2264 10.6661-3.2044 3.3646-6.4088 7.187-9.4529 11.4213-5.1729.5494-10.071 1.3962-14.5572 2.5178-.5264-2.2889-.9155-4.5091-1.1902-6.6377-1.0757-8.7434.2518-15.54132 3.3418-17.34951.6866-.412 1.5793-.5951 2.6321-.5951v-5.104147c-1.9226 0-3.6621.411993-5.1728 1.281757-6.4316 3.70794-7.8736 15.2667-4.5548 29.778-14.23664 4.3946-23.5065007 11.4214-23.5065007 18.8372 0 7.4388 9.3156307 14.4885 23.5981007 18.8602-3.296 14.5571-1.8311 26.1387 4.6235 29.8466 1.4877.8698 3.2272 1.2818 5.1499 1.2818 6.2943 0 14.5342-4.4862 22.8656-12.2683 8.3315 7.7364 16.5713 12.1767 22.8657 12.1767 1.9226 0 3.6621-.4119 5.1728-1.2817 6.4317-3.708 7.8736-15.2667 4.5548-29.778 14.1906-4.3717 23.4606-11.4214 23.4606-18.8373zm-29.8007-15.2666c-.8469 2.9526-1.8998 5.9968-3.09 9.041-.9384-1.8311-1.9226-3.6622-2.9984-5.4933-1.0529-1.8311-2.1744-3.6164-3.2959-5.3559 3.2501.4807 6.3859 1.0758 9.3843 1.8082zm-10.483 24.3763c-1.7853 3.0899-3.6164 6.0197-5.5161 8.7434-3.4104.2975-6.8666.4578-10.3456.4578-3.4562 0-6.9124-.1602-10.2999-.4349-1.8997-2.7237-3.7537-5.6306-5.539-8.6977-1.7395-2.9984-3.3188-6.0425-4.7608-9.1096 1.4191-3.0671 3.0213-6.1341 4.7379-9.1325 1.7853-3.09 3.6164-6.0197 5.5162-8.7434 3.4103-.2976 6.8665-.4578 10.3456-.4578 3.4561 0 6.9123.1602 10.2998.4349 1.8998 2.7237 3.7537 5.6306 5.539 8.6976 1.7396 2.9984 3.3189 6.0426 4.7608 9.1097-1.4419 3.067-3.0212 6.1341-4.7379 9.1325zm7.393-2.9755c1.236 3.067 2.2889 6.1341 3.1586 9.1096-2.9984.7324-6.157 1.3504-9.43 1.8311 1.1215-1.7624 2.243-3.5706 3.2959-5.4246 1.0529-1.8311 2.0371-3.685 2.9755-5.5161zm-23.2089 24.422c-2.1287-2.1973-4.2573-4.6463-6.3631-7.3243 2.06.0916 4.1657.1602 6.2944.1602 2.1515 0 4.2801-.0458 6.363-.1602-2.06 2.678-4.1886 5.127-6.2943 7.3243zm-17.0291-13.4813c-3.2502-.4807-6.3859-1.0758-9.3843-1.8082.8469-2.9526 1.8997-5.9968 3.0899-9.041.9385 1.8311 1.9227 3.6622 2.9984 5.4933 1.0758 1.8311 2.1744 3.6164 3.296 5.3559zm16.9146-47.631c2.1286 2.1973 4.2573 4.6463 6.363 7.3243-2.06-.0916-4.1657-.1602-6.2943-.1602-2.1516 0-4.2802.0457-6.363.1602 2.0599-2.678 4.1886-5.127 6.2943-7.3243zm-16.9375 13.4813c-1.1215 1.7624-2.2431 3.5706-3.296 5.4246-1.0528 1.8311-2.037 3.6621-2.9755 5.4932-1.2359-3.067-2.2888-6.1341-3.1586-9.1096 2.9984-.7096 6.157-1.3275 9.4301-1.8082zm-20.7141 28.6564c-8.1026-3.4561-13.34405-7.9881-13.34405-11.5816s5.24145-8.1483 13.34405-11.5816c1.9684-.8468 4.1199-1.6021 6.3401-2.3117 1.3046 4.4862 3.0213 9.1554 5.1499 13.9391-2.1057 4.7608-3.7995 9.4072-5.0812 13.8705-2.266-.7096-4.4175-1.4878-6.4088-2.3347zm12.314 32.7078c-3.1128-1.7854-4.4633-8.5832-3.4104-17.3267.2518-2.1515.6638-4.4175 1.1673-6.7292 4.4862 1.0987 9.3843 1.9455 14.5342 2.4949 3.09 4.2343 6.2944 8.0796 9.5217 11.4442-7.4617 6.9352-14.4656 10.7347-19.2264 10.7347-1.03-.0228-1.8997-.2288-2.5864-.6179zm54.2916-17.4411c1.0758 8.7434-.2518 15.5413-3.3417 17.3495-.6867.412-1.5793.5951-2.6322.5951-4.7379 0-11.7647-3.7766-19.2264-10.666 3.2044-3.3647 6.4088-7.1871 9.453-11.4214 5.1728-.5494 10.0709-1.3962 14.5571-2.5178.5264 2.3118.9384 4.532 1.1902 6.6606zm8.8121-15.2667c-1.9684.8469-4.12 1.6022-6.3401 2.3118-1.3047-4.4862-3.0213-9.1554-5.15-13.9391 2.1058-4.7609 3.7995-9.4072 5.0813-13.8705 2.266.7096 4.4175 1.4878 6.4317 2.3346 8.1021 3.4562 13.3441 7.9881 13.3441 11.5816-.023 3.5935-5.264 8.1484-13.367 11.5816z"/><path d="m10.4601 20.9201c5.7769 0 10.46-4.6831 10.46-10.46 0-5.77697-4.6831-10.4601-10.46-10.4601-5.77697 0-10.46009721 4.68313-10.46009721 10.4601 0 5.7769 4.68312721 10.46 10.46009721 10.46z" transform="translate(45.6626 39.5513)"/></g></svg>