<svg fill="none" height="101" viewBox="0 0 314 101" width="314" xmlns="http://www.w3.org/2000/svg"><g fill="#2da8e0"><path d="m-.00000022 38.051 4.40835022-6.6705c4.64037 3.4803 9.68675 5.2784 14.03715 5.2784 4.2343 0 6.6705-1.7981 6.6705-4.6403v-.1741c0-3.3062-4.5244-4.4663-9.5708-6.0324-6.32246-1.7982-13.39903-4.4084-13.39903-12.587v-.1741c0-8.1206 6.72854-13.05100044 15.25523-13.05100044 5.3364 0 11.1949 1.85615044 15.7772 4.87239044l-3.8863 6.96051c-4.1183-2.49415-8.5266-4.06028-12.1229-4.06028-3.8283 0-6.0325 1.79814-6.0325 4.29238v.232c0 3.0742 4.6404 4.4083 9.6868 6.0325 6.2645 1.9721 13.341 4.8143 13.341 12.529v.174c0 8.9907-6.9605 13.4571-15.8932 13.4571-6.1485-.0581-12.93507-2.2622-18.27150022-6.4386z" transform="translate(0 16.3573)"/><path d="m-.00000177.00000022h10.55680177v9.33874978h-10.55680177zm.40603477 15.95129978h9.802767v42.8654h-9.802767z" transform="translate(40.1972 1.16008)"/><path d="m-.00000089.870069h9.80278089v6.496521c2.78422-3.82831 6.49652-7.36659089 13.05102-7.36659089 6.1485 0 10.4989 3.01624089 12.761 7.54060089 3.4803-4.52436 8.0627-7.54060089 14.5592-7.54060089 9.3388 0 15.0232 5.91647089 15.0232 16.41530089v27.3202h-9.8028v-24.3619c0-6.8446-3.1902-10.49889-8.7007-10.49889-5.3364 0-9.1647 3.71229-9.1647 10.61489v24.2459h-9.8028v-24.42c0-6.6705-3.2482-10.38279-8.7007-10.38279-5.4524 0-9.16471 4.06029-9.16471 10.73089v24.0719h-9.8027871v-42.865431z" transform="translate(58.4107 16.2413)"/><path d="m.00000354.928073h9.80277646v7.134567c3.19022-4.46635 7.65662-8.06264 14.55922-8.06264 10.1508 0 20.0116 8.06264 20.0116 22.2738v.174c0 14.2111-9.7448 22.2738-20.0116 22.2738-7.0766 0-11.543-3.5963-14.55922-7.5406v19.6635h-9.80277646zm34.39669646 21.519727v-.174c0-8.2947-5.6264-13.74712-12.2389-13.74712-6.6706 0-12.52902 5.51042-12.52902 13.74712v.174c0 8.2947 5.85842 13.7471 12.52902 13.7471 6.6705 0 12.2389-5.2784 12.2389-13.7471z" transform="translate(131.497 16.1833)"/><path d="m-.00000354.00000011h9.80278354v59.28069989h-9.80278354z" transform="translate(182.425 .696045)"/><path d="m-.00000354 22.5058v-.174c0-12.239 8.70070354-22.3318 20.93970354-22.3318 13.6311 0 20.5336 10.7309 20.5336 23.0858 0 .8701-.058 1.7982-.174 2.7843h-31.49652c1.04412 6.9605 6.03252 10.9048 12.35502 10.9048 4.8144 0 8.1786-1.7981 11.6009-5.1044l5.7425 5.1044c-4.0604 4.8724-9.6868 8.0627-17.5175 8.0627-12.35494-.058-21.98370354-9.0487-21.98370354-22.3318zm31.78650354-3.1323c-.638-6.3225-4.4083-11.31086-10.9048-11.31086-6.0325 0-10.2088 4.64036-11.13691 11.31086z" transform="translate(198.666 16.1833)"/></g><path d="m.00000354.0580011h3.30625646l5.45245 16.6472989 5.56839-16.70529823h2.5523l5.6264 16.70529823 5.4524-16.6472989h3.1903l-7.3086 20.8816989h-2.6682l-5.5685-16.35734-5.62641 16.35734h-2.72621z" fill="#e7128c" transform="translate(146.868 78.7123)"/><path d="m.00000354.0580011h3.30625646l5.45245 16.6472989 5.56839-16.70529823h2.5523l5.6264 16.70529823 5.4524-16.6472989h3.1903l-7.3086 20.8816989h-2.6682l-5.5685-16.35734-5.62641 16.35734h-2.72621z" stroke="#e7128c" stroke-miterlimit="10" transform="translate(146.868 78.7123)"/><path d="m10.3828 18.9675c2.8423 0 4.8724-1.1601 6.5546-2.9002l1.9141 1.7401c-2.0882 2.3202-4.5824 3.8863-8.5267 3.8863-5.68443 0-10.32480708-4.3503-10.32480708-10.8468 0-6.03251 4.23433708-10.84689646 9.91879708-10.84689646 6.14851 0 9.68681 4.87238646 9.68681 10.96289646 0 .29 0 .58-.058 1.1021h-16.41534c.34803 4.3503 3.59629 6.9025 7.25054 6.9025zm6.0325-9.39673c-.348-3.7703-2.5522-6.96056-6.61251-6.96056-3.53828 0-6.2645 2.95824-6.72854 6.96056z" fill="#e7128c" transform="translate(180.916 78.3063)"/><path d="m10.3828 18.9675c2.8423 0 4.8724-1.1601 6.5546-2.9002l1.9141 1.7401c-2.0882 2.3202-4.5824 3.8863-8.5267 3.8863-5.68443 0-10.32480708-4.3503-10.32480708-10.8468 0-6.03251 4.23434708-10.84689646 9.91879708-10.84689646 6.14851 0 9.68681 4.87238646 9.68681 10.96289646 0 .29 0 .58-.058 1.1021h-16.41534c.34803 4.3503 3.59629 6.9025 7.25054 6.9025zm6.0325-9.39673c-.348-3.7703-2.5522-6.96056-6.61251-6.96056-3.53828 0-6.2645 2.95824-6.72854 6.96056z" stroke="#e7128c" stroke-miterlimit="10" transform="translate(180.916 78.3063)"/><path d="m3.07425 25.29v3.9443h-3.07425708v-29.23430177h3.07425708v12.70300177c1.68213-2.4942 4.11832-4.58235 7.94665-4.58235 4.9884 0 9.9188 3.94435 9.9188 10.73085v.058c0 6.7866-4.8724 10.7889-9.9188 10.7889-3.82833 0-6.32252-2.0882-7.94665-4.4084zm14.67515-6.3805v-.058c0-4.8724-3.3643-8.0046-7.3086-8.0046-3.82828 0-7.48257 3.2482-7.48257 7.9466v.058c0 4.8144 3.65429 8.0046 7.48257 8.0046 4.0604.0581 7.3086-2.9002 7.3086-7.9466z" fill="#e7128c" transform="translate(205.858 70.2436)"/><path d="m3.07425 25.29v3.9443h-3.07425708v-29.23430177h3.07425708v12.70300177c1.68213-2.4942 4.11832-4.58235 7.94665-4.58235 4.9884 0 9.9188 3.94435 9.9188 10.73085v.058c0 6.7866-4.8724 10.7889-9.9188 10.7889-3.82833 0-6.32252-2.0882-7.94665-4.4084zm14.67515-6.3805v-.058c0-4.8724-3.3643-8.0046-7.3086-8.0046-3.82828 0-7.48257 3.2482-7.48257 7.9466v.058c0 4.8144 3.65429 8.0046 7.48257 8.0046 4.0604.0581 7.3086-2.9002 7.3086-7.9466z" stroke="#e7128c" stroke-miterlimit="10" transform="translate(205.858 70.2436)"/><path d="m.00000708-.00000177h12.06499292c3.4222 0 6.2065 1.04408177 7.9466 2.78422177 1.3341 1.33411 2.1462 3.30627 2.1462 5.51044v.05801c0 4.64033-3.1903 7.36663-7.5986 8.17863l8.6427 11.4849h-3.8864l-8.1206-10.9048h-8.00464v10.9048h-3.19025292zm11.77489292 14.32710177c4.2344 0 7.1926-2.1461 7.1926-5.74241v-.05801c0-3.42228-2.6682-5.51044-7.1926-5.51044h-8.64265v11.36896h8.64265z" fill="#e7128c" transform="translate(232.193 71.4037)"/><path d="m.00000708-.00000177h12.06499292c3.4222 0 6.2065 1.04408177 7.9466 2.78422177 1.3341 1.33411 2.1462 3.30627 2.1462 5.51044v.05801c0 4.64033-3.1903 7.36663-7.5986 8.17863l8.6427 11.4849h-3.8864l-8.1206-10.9048h-8.00464v10.9048h-3.19025292zm11.77489292 14.32710177c4.2344 0 7.1926-2.1461 7.1926-5.74241v-.05801c0-3.42228-2.6682-5.51044-7.1926-5.51044h-8.64265v11.36896h8.64265z" stroke="#e7128c" stroke-miterlimit="10" transform="translate(232.193 71.4037)"/><path d="m9.39675 2.90023h-9.39675708v-2.90022823h22.04180708v2.90022823h-9.3968v25.11597h-3.24825z" fill="#e7128c" transform="translate(258.643 71.4617)"/><path d="m9.39675 2.90023h-9.39675708v-2.90022823h22.04180708v2.90022823h-9.3968v25.11597h-3.24825z" stroke="#e7128c" stroke-miterlimit="10" transform="translate(258.643 71.4617)"/><path d="m.00000354 14.5592v-.058c0-7.94668 5.91645646-14.5012 14.21109646-14.5012 5.1044 0 8.1207 1.79814 10.9629 4.46636l-2.1462 2.32018c-2.3782-2.26218-4.9884-3.8283-8.8167-3.8283-6.20647 0-10.84683 5.0464-10.84683 11.48496v.058c0 6.4965 4.69836 11.6009 10.84683 11.6009 3.8283 0 6.3806-1.5081 9.0488-4.0603l2.0881 2.0301c-2.9002 2.9583-6.1485 4.9304-11.1949 4.9304-8.17862-.058-14.15309646-6.4385-14.15309646-14.4431z" fill="#e7128c" transform="translate(282.309 70.9977)"/><path d="m.00000354 14.5592v-.058c0-7.94668 5.91645646-14.5012 14.21109646-14.5012 5.1044 0 8.1207 1.79814 10.9629 4.46636l-2.1462 2.32018c-2.3782-2.26218-4.9884-3.8283-8.8167-3.8283-6.20647 0-10.84683 5.0464-10.84683 11.48496v.058c0 6.4965 4.69836 11.6009 10.84683 11.6009 3.8283 0 6.3806-1.5081 9.0488-4.0603l2.0881 2.0301c-2.9002 2.9583-6.1485 4.9304-11.1949 4.9304-8.17862-.058-14.15309646-6.4385-14.15309646-14.4431z" stroke="#e7128c" stroke-miterlimit="10" transform="translate(282.309 70.9977)"/><path d="m4.98839 4.20669c-.058 0-.11599 0-.11599 0-.75406-.11601-1.56613-.23202-2.3782-.34803l-2.49420708-.46403 1.97216708-1.62413c.58005-.46404 1.16009-.928078 1.68214-1.450119.46403-.464038 1.21809-.4060338 1.62412.058003.40603.464037.40603 1.102096.05801 1.566126.52204.17402.87006.69606.81206 1.2181-.11601.58005-.58005 1.04408-1.1601 1.04408z" fill="#e7128c" transform="translate(244.142 56.5242)"/><path d="m33.8416 60.9629c-.58 0-1.1021-.4641-1.1601-1.0441-.058-.6381.4061-1.2181 1.0441-1.2761 1.5081-.116 2.9583-.348 4.4084-.6961.638-.174 1.2761.2321 1.3921.8701.174.6381-.232 1.2761-.8701 1.3921-1.5661.348-3.1322.6381-4.7564.7541 0-.058 0 0-.058 0zm-5.8004-.058c-.058 0-.058 0-.1161 0-1.6241-.116-3.2482-.4061-4.7563-.7541-.6381-.116-.9861-.754-.8701-1.3921.116-.638.7541-.9861 1.3921-.8701 1.3921.3481 2.9002.5801 4.4084.6961.638.058 1.1021.638 1.044 1.2761 0 .58-.522 1.0441-1.102 1.0441zm-24.41999 0c-.63805 0-1.10209-.4641-1.1601-1.1021-.058-.6381.46404-1.1601 1.10209-1.2181 1.50812-.116 2.95824-.29 4.40835-.6381.63806-.174 1.2761.2321 1.39211.8701.11601.6381-.23202 1.2761-.87007 1.3921-1.56612.348-3.13224.5801-4.81437.6961-.05801 0-.05801 0-.05801 0zm10.09279-2.4942c-.464 0-.8701-.29-1.1021-.7541-.232-.58.058-1.2761.6381-1.5081h.058c1.0441-.406 1.9141-.7541 2.7842-.9861l.4641-.116.406.232c.464.29.9861.5221 1.5081.8121.58.29.8121.9861.522 1.5661-.29.5801-.986.8121-1.5661.5221-.406-.1741-.812-.4061-1.2181-.6381-.58.174-1.2761.464-2.0301.7541h-.0581c-.116.116-.29.116-.406.116zm30.1624-.116c-.464 0-.87-.2321-1.0441-.6961-.29-.58 0-1.2761.5801-1.5661 1.3341-.6381 2.6682-1.3341 3.8863-2.1462.5221-.348 1.2761-.232 1.6241.348.3481.5221.2321 1.2761-.348 1.6242-1.3341.87-2.7262 1.6821-4.2343 2.3782-.1161.058-.2901.058-.4641.058zm-42.69138-3.8863c-.232015 0-.464041-.0581-.696059-.2321-.5220422-.348-.638051-1.1021-.290024-1.6241.928073-1.2761 1.682133-2.5522 2.262173-3.8283.29003-.58.92808-.8701 1.50813-.58.58004.29.87007.928.58004 1.5081-.63805 1.3921-1.45012 2.7842-2.4362 4.1763-.23202.464-.58003.5801-.92806.5801zm51.21808-2.0302c-.29 0-.58-.116-.8121-.348-.464-.4641-.464-1.1601 0-1.6242 1.0441-1.0441 2.0302-2.2041 2.9003-3.4222.348-.5221 1.1021-.6381 1.6241-.2901.5221.3481.6381 1.1021.29 1.6242-.928 1.3341-1.9721 2.5522-3.1322 3.7123-.232.232-.5221.348-.8701.348zm-48.14384-7.4246c-.40603 0-.81206-.232-1.04407-.6381-.69606-1.4501-1.33411-2.9582-1.79815-4.4663-.17402-.6381.17401-1.2761.75405-1.4501.63805-.174 1.2761.174 1.45012.754.46403 1.3921.98607 2.7843 1.68213 4.1184.29002.58.05801 1.2761-.52204 1.5661-.17401.058-.34802.116-.52204.116zm54.06034-1.1601c-.174 0-.348-.058-.464-.116-.5801-.29-.8701-.9281-.5801-1.5081.5801-1.3341 1.1021-2.7842 1.5081-4.1764.174-.638.8121-.986 1.3921-.812.6381.174.9861.812.8121 1.3921-.406 1.5661-.9861 3.0742-1.6241 4.5244-.174.406-.5801.696-1.0441.696zm-56.96057-8.8747c-.580046 0-1.102088-.464-1.160093-1.0441-.1160089-1.0441-.1740065-2.1462-.1740065-3.1902 0-.2901 0-.5801 0-.9281v-.6961c0-.638.5800325-1.1601 1.2180795-1.1021.63805 0 1.16011.5801 1.10211 1.2181v.6961.8121c0 .986.05799 1.9721.174 2.9582.05801.638-.40602 1.2181-1.04407 1.2761 0 0-.05802 0-.11602 0zm59.45477-1.2181h-.058c-.6381-.058-1.1021-.5801-1.1021-1.2181 0-.348.058-.6961.058-1.0441v-.232c0-.29 0-.58 0-.8701 0-.754-.058-1.5661-.116-2.3782-.058-.638.406-1.2181 1.0441-1.2761.638-.058 1.2181.4061 1.2761 1.0441.058.8701.116 1.6822.116 2.5522v.9281.232c0 .406-.058.7541-.058 1.1021-.058.6961-.5801 1.1601-1.1601 1.1601zm-58.75871-9.1067c-.11601 0-.17401 0-.29002-.058-.63805-.1741-.986079-.7541-.87007-1.3921.40603-1.5662.87006-3.1323 1.50811-4.5824.23201-.5801.92807-.8701 1.50812-.6381.58005.2321.87007.9281.63805 1.5082-.58004 1.3921-1.04407 2.7842-1.3921 4.2343-.11601.522-.58005.9281-1.10209.9281zm57.71461-1.2761c-.522 0-.9861-.3481-1.1021-.8701-.406-1.4501-.9281-2.8422-1.5661-4.1763-.2901-.5801 0-1.2761.58-1.5662.5801-.29 1.2761 0 1.5662.5801.696 1.4501 1.2761 2.9582 1.6821 4.5243.174.6381-.174 1.2761-.8121 1.4502-.174.058-.29.058-.348.058zm-53.48028-8.2367c-.23201 0-.46404-.058-.63805-.174-.52204-.348-.69606-1.1021-.29002-1.6241.92807-1.3341 1.91416-2.6102 3.01624-3.77034.46404-.46404 1.16009-.46404 1.62411-.058.4641.46403.4641 1.16004.058 1.62414-1.04406 1.1021-1.97213 2.2622-2.78419 3.4803-.29002.348-.63806.522-.98609.522zm48.83988-1.0441c-.348 0-.696-.174-.9281-.464-.87-1.1601-1.8561-2.3202-2.9582-3.3643-.464-.46402-.464-1.16008 0-1.62411.4641-.46404 1.1601-.46404 1.6241 0 1.1601 1.10208 2.2042 2.32021 3.1903 3.65431.406.522.29 1.2181-.232 1.6241-.174.058-.406.174-.6961.174zm-41.5893-6.38049c-.348 0-.6961-.17401-.9281-.46404-.348-.52204-.232-1.21809.29-1.62412 1.3342-.92808 2.7263-1.74014 4.1764-2.4362.58-.29002 1.2761-.058 1.5661.52204.29.58005.058 1.2761-.522 1.56613-1.3341.63805-2.6102 1.39211-3.8283 2.26218-.2901.058-.5221.17401-.7541.17401zm33.9907-.69605c-.232 0-.406-.05801-.638-.17402-1.2181-.81206-2.5522-1.50812-3.9443-2.08816-.5801-.23202-.8701-.92808-.5801-1.50812.232-.58005.9281-.87007 1.5081-.58005 1.4501.63805 2.9002 1.39211 4.2344 2.26218.522.34803.696 1.04408.348 1.62413-.174.23202-.5221.46404-.9281.46404zm-24.5359-3.7123c-.5221 0-.9861-.34803-1.1021-.87007-.174-.63805.232-1.2761.812-1.392111 1.5662-.406033 3.1323-.696056 4.7564-.87007.6381-.0580042 1.2181.406033 1.2761 1.044081.058.63805-.406 1.2181-1.0441 1.2761-1.5081.17402-2.9582.40604-4.4083.81207-.116 0-.232 0-.29 0zm14.9651-.29002c-.058 0-.174 0-.232 0-1.4501-.29003-2.9002-.52204-4.4083-.63805-.6381-.05801-1.1021-.58005-1.1021-1.2181.058-.638053.58-1.10208978 1.2181-1.10208978 1.6241.11600978 3.1903.34802778 4.7564.69605578.638.116009 1.0441.754064.87 1.392114-.116.52204-.58.87007-1.1021.87007z" fill="#e7128c" transform="translate(251.309)"/><path d="m6.48229 35.6679c-.23202 0-.52204-.058-.75406-.116-.87007-.29-1.50813-1.1601-1.62414-2.3202l-4.0603213-30.16238c-.1740137-1.16009.1740213-2.146169.9860813-2.668211.81207-.580046 1.97216-.522041 3.19026.11601l21.57769 11.542881c1.1021.5801 1.7982 1.5082 1.9142 2.6103.174 1.102-.29 2.2041-1.1601 3.0162l-17.74943 16.9373c-.75406.6381-1.50812 1.0441-2.32018 1.0441zm-4.11834-33.41064c0 .058-.058.17401 0 .46403l4.06033 30.16241c.058.29.11602.406.11602.464.116 0 .34803-.116.69606-.406l17.74944-16.9373c.348-.3481.522-.6961.464-1.0441-.058-.3481-.29-.6381-.7541-.8701l-21.57768-11.54292c-.40603-.29002-.63806-.29002-.75407-.29002z" fill="#e7128c" transform="translate(271.07 13.056)"/></svg>