<svg fill="none" height="100" viewBox="0 0 104 100" width="104" xmlns="http://www.w3.org/2000/svg"><path d="m11.7562 5.87499c0-3.24455-2.63147-5.87499009-5.87787-5.87499009-3.24683 0-5.87833041 2.63044009-5.87833041 5.87499009s2.63150041 5.87501 5.87833041 5.87501c3.2464 0 5.87787-2.63046 5.87787-5.87501z" fill="#f60" transform="matrix(3.9483 0 0 -3.9483 10.8285 100)"/><path d="m11.7562 5.87499c0-3.24412-2.63147-5.87499009-5.87787-5.87499009-3.24683 0-5.87833041 2.63087009-5.87833041 5.87499009 0 3.24455 2.63150041 5.87541 5.87833041 5.87541 3.2464 0 5.87787-2.63086 5.87787-5.87541z" fill="#fc0" transform="matrix(3.9483 0 0 -3.9483 56.7322 67.5244)"/><path d="m11.7562 5.87499c0-3.24412-2.63147-5.87499009-5.8783-5.87499009-3.24597 0-5.87790041 2.63087009-5.87790041 5.87499009 0 3.24455 2.63193041 5.87541 5.87790041 5.87541 3.24683 0 5.8783-2.63086 5.8783-5.87541z" fill="#0089cc" transform="matrix(3.9483 0 0 -3.9483 0 67.0122)"/><path d="m11.7567 5.87499c0-3.24455-2.63154-5.87499009-5.8788-5.87499009-3.24597 0-5.87790017 2.63044009-5.87790017 5.87499009s2.63193017 5.87501 5.87790017 5.87501c3.24726 0 5.8788-2.63046 5.8788-5.87501z" fill="#009939" transform="matrix(3.9483 0 0 -3.9483 46.4148 100)"/><path d="m11.7567 5.87499c0-3.24455-2.63197-5.87499009-5.87837-5.87499009s-5.87833017 2.63044009-5.87833017 5.87499009 2.63193017 5.87501 5.87833017 5.87501 5.87837-2.63046 5.87837-5.87501z" fill="#bf0000" transform="matrix(3.9483 0 0 -3.9483 28.3644 46.3923)"/><path d="m0 .366487c0-.123598.0107725-.244612.0185287-.366487 2.6073713.601193 4.5533113 2.93103 4.5533113 5.71952 0 .1236-.01077.24504-.01853.36692-2.60737-.60163-4.55331-2.93147-4.55331-5.719953z" fill="#fc0007" transform="matrix(3.9483 0 0 -3.9483 56.7329 45.7754)"/><path d="m0 2.96592c1.01304-1.76999 2.91676-2.96592004 5.10314-2.96592004.8911 0 1.73265.20413004 2.48974.55898904-1.01261 1.769991-2.91633 2.965911-5.10314 2.965911-.8911 0-1.73265-.20413-2.48974-.55898" fill="#1cd306" transform="matrix(3.9483 0 0 -3.9483 59.7965 67.5244)"/><path d="m0 3.76909c0-1.43537.516217-2.74887 1.37198-3.76908994.85491 1.02021994 1.37113 2.33371994 1.37113 3.76908994s-.51622 2.74886-1.37113 3.76908c-.855763-1.02022-1.37198-2.33371-1.37198-3.76908" fill="#0f7504" transform="matrix(3.9483 0 0 -3.9483 46.4171 91.6851)"/><path d="m0 .481041c.714-.308349 1.49996-.48104099 2.32729-.48104099 2.16484 0 4.05088 1.17266999 5.07125 2.91380999-.714.30835-1.50039.48061-2.32728.48061-2.16484 0-4.05132-1.17267-5.07126-2.913379" fill="#0c5e87" transform="matrix(3.9483 0 0 -3.9483 14.0178 67.0112)"/><path d="m.0254231 6.21348c-.0137888-.16365-.0254231-.32816-.0254231-.49568 0-2.78634 1.94293-5.114023 4.54728-5.71780019.01336.16364819.02499.32815919.02499.49525219 0 2.786338-1.94249 5.114878-4.5468469 5.718228z" fill="#6b0001" transform="matrix(3.9483 0 0 -3.9483 28.3655 45.7693)"/><path d="m2.39149 3.86125h-.91954c-.811812 0-1.47195008.65761-1.47195008 1.4668v8.31855c0 .8092.66013808 1.4672 1.47195008 1.4672h11.53045c.8118 0 1.4715-.658 1.4715-1.4672v-8.31855c0-.80919-.6597-1.4668-1.4715-1.4668h-3.92809l-7.88115-3.86124983z" fill="#fff" transform="matrix(3.9483 0 0 -3.9483 21.1909 89.1768)"/></svg>